<?xml version="1.0" encoding="UTF-8" standalone="no"?>
<!DOCTYPE svg PUBLIC "-//W3C//DTD SVG 1.1//EN"
 "http://www.w3.org/Graphics/SVG/1.1/DTD/svg11.dtd">
<!-- Generated by graphviz version 6.0.1 (0)
 -->
<!-- Title: G Pages: 1 -->
<svg width="581pt" height="552pt"
 viewBox="0.00 0.00 581.04 552.00" xmlns="http://www.w3.org/2000/svg" xmlns:xlink="http://www.w3.org/1999/xlink">
<g id="graph0" class="graph" transform="scale(1 1) rotate(0) translate(4 548)">
<title>G</title>
<polygon fill="white" stroke="none" points="-4,4 -4,-548 577.04,-548 577.04,4 -4,4"/>
<!-- _ -->
<g id="node1" class="node">
<title>_</title>
<ellipse fill="none" stroke="black" cx="74.7" cy="-526" rx="46.29" ry="18"/>
<text text-anchor="middle" x="74.7" y="-522.3" font-family="Times,serif" font-size="14.00">simple?</text>
</g>
<!-- _1_ -->
<g id="node2" class="node">
<title>_1_</title>
<ellipse fill="none" stroke="black" cx="50.7" cy="-439" rx="50.89" ry="18"/>
<text text-anchor="middle" x="50.7" y="-435.3" font-family="Times,serif" font-size="14.00">to string</text>
</g>
<!-- _&#45;&gt;_1_ -->
<g id="edge1" class="edge">
<title>_&#45;&gt;_1_</title>
<path fill="none" stroke="black" d="M69.84,-507.8C66.52,-496.05 62.06,-480.24 58.27,-466.84"/>
<polygon fill="black" stroke="black" points="61.63,-465.85 55.55,-457.18 54.89,-467.75 61.63,-465.85"/>
<text text-anchor="middle" x="77.2" y="-478.8" font-family="Times,serif" font-size="14.00">yes</text>
</g>
<!-- _2_ -->
<g id="node3" class="node">
<title>_2_</title>
<ellipse fill="none" stroke="black" cx="188.7" cy="-439" rx="69.59" ry="18"/>
<text text-anchor="middle" x="188.7" y="-435.3" font-family="Times,serif" font-size="14.00">suffix blank?</text>
</g>
<!-- _&#45;&gt;_2_ -->
<g id="edge13" class="edge">
<title>_&#45;&gt;_2_</title>
<path fill="none" stroke="black" d="M95.08,-509.8C112.78,-496.6 138.67,-477.3 158.74,-462.34"/>
<polygon fill="black" stroke="black" points="161.01,-465.01 166.94,-456.22 156.83,-459.39 161.01,-465.01"/>
<text text-anchor="middle" x="147.7" y="-478.8" font-family="Times,serif" font-size="14.00">no</text>
</g>
<!-- _2_1_ -->
<g id="node4" class="node">
<title>_2_1_</title>
<ellipse fill="none" stroke="black" cx="144.7" cy="-352" rx="43.59" ry="18"/>
<text text-anchor="middle" x="144.7" y="-348.3" font-family="Times,serif" font-size="14.00">error 1</text>
</g>
<!-- _2_&#45;&gt;_2_1_ -->
<g id="edge2" class="edge">
<title>_2_&#45;&gt;_2_1_</title>
<path fill="none" stroke="black" d="M179.79,-420.8C173.55,-408.74 165.09,-392.4 158.05,-378.79"/>
<polygon fill="black" stroke="black" points="161.14,-377.16 153.44,-369.89 154.93,-380.38 161.14,-377.16"/>
<text text-anchor="middle" x="178.7" y="-391.8" font-family="Times,serif" font-size="14.00">no</text>
</g>
<!-- _2_2_ -->
<g id="node5" class="node">
<title>_2_2_</title>
<ellipse fill="none" stroke="black" cx="277.7" cy="-352" rx="71.49" ry="18"/>
<text text-anchor="middle" x="277.7" y="-348.3" font-family="Times,serif" font-size="14.00">trim prefixes</text>
</g>
<!-- _2_&#45;&gt;_2_2_ -->
<g id="edge12" class="edge">
<title>_2_&#45;&gt;_2_2_</title>
<path fill="none" stroke="black" d="M206.28,-421.21C219.65,-408.43 238.22,-390.7 253.07,-376.52"/>
<polygon fill="black" stroke="black" points="255.64,-378.91 260.45,-369.47 250.8,-373.84 255.64,-378.91"/>
<text text-anchor="middle" x="251.2" y="-391.8" font-family="Times,serif" font-size="14.00">yes</text>
</g>
<!-- _2_2_1_ -->
<g id="node6" class="node">
<title>_2_2_1_</title>
<ellipse fill="none" stroke="black" cx="277.7" cy="-279" rx="97.48" ry="18"/>
<text text-anchor="middle" x="277.7" y="-275.3" font-family="Times,serif" font-size="14.00">first prefix empty?</text>
</g>
<!-- _2_2_&#45;&gt;_2_2_1_ -->
<g id="edge11" class="edge">
<title>_2_2_&#45;&gt;_2_2_1_</title>
<path fill="none" stroke="black" d="M277.7,-333.81C277.7,-325.79 277.7,-316.05 277.7,-307.07"/>
<polygon fill="black" stroke="black" points="281.2,-307.03 277.7,-297.03 274.2,-307.03 281.2,-307.03"/>
</g>
<!-- _2_2_1_1_ -->
<g id="node7" class="node">
<title>_2_2_1_1_</title>
<ellipse fill="none" stroke="black" cx="194.7" cy="-192" rx="66.09" ry="18"/>
<text text-anchor="middle" x="194.7" y="-188.3" font-family="Times,serif" font-size="14.00">rest empty?</text>
</g>
<!-- _2_2_1_&#45;&gt;_2_2_1_1_ -->
<g id="edge5" class="edge">
<title>_2_2_1_&#45;&gt;_2_2_1_1_</title>
<path fill="none" stroke="black" d="M261.3,-261.21C248.94,-248.55 231.83,-231.03 218.04,-216.91"/>
<polygon fill="black" stroke="black" points="220.27,-214.18 210.78,-209.47 215.26,-219.07 220.27,-214.18"/>
<text text-anchor="middle" x="254.2" y="-231.8" font-family="Times,serif" font-size="14.00">yes</text>
</g>
<!-- _2_2_1_2_ -->
<g id="node10" class="node">
<title>_2_2_1_2_</title>
<ellipse fill="none" stroke="black" cx="361.7" cy="-192" rx="83.39" ry="18"/>
<text text-anchor="middle" x="361.7" y="-188.3" font-family="Times,serif" font-size="14.00">rest nonempty?</text>
</g>
<!-- _2_2_1_&#45;&gt;_2_2_1_2_ -->
<g id="edge10" class="edge">
<title>_2_2_1_&#45;&gt;_2_2_1_2_</title>
<path fill="none" stroke="black" d="M294.29,-261.21C306.72,-248.63 323.89,-231.25 337.8,-217.18"/>
<polygon fill="black" stroke="black" points="340.59,-219.33 345.13,-209.76 335.62,-214.41 340.59,-219.33"/>
<text text-anchor="middle" x="334.7" y="-231.8" font-family="Times,serif" font-size="14.00">no</text>
</g>
<!-- _2_2_1_1_1_ -->
<g id="node8" class="node">
<title>_2_2_1_1_1_</title>
<ellipse fill="none" stroke="black" cx="115.7" cy="-105" rx="48.19" ry="18"/>
<text text-anchor="middle" x="115.7" y="-101.3" font-family="Times,serif" font-size="14.00">to array</text>
</g>
<!-- _2_2_1_1_&#45;&gt;_2_2_1_1_1_ -->
<g id="edge3" class="edge">
<title>_2_2_1_1_&#45;&gt;_2_2_1_1_1_</title>
<path fill="none" stroke="black" d="M179.09,-174.21C167.25,-161.47 150.83,-143.8 137.66,-129.64"/>
<polygon fill="black" stroke="black" points="140.11,-127.12 130.73,-122.18 134.98,-131.89 140.11,-127.12"/>
<text text-anchor="middle" x="173.2" y="-144.8" font-family="Times,serif" font-size="14.00">yes</text>
</g>
<!-- _2_2_1_1_2_ -->
<g id="node9" class="node">
<title>_2_2_1_1_2_</title>
<ellipse fill="none" stroke="black" cx="225.7" cy="-105" rx="43.59" ry="18"/>
<text text-anchor="middle" x="225.7" y="-101.3" font-family="Times,serif" font-size="14.00">error 2</text>
</g>
<!-- _2_2_1_1_&#45;&gt;_2_2_1_1_2_ -->
<g id="edge4" class="edge">
<title>_2_2_1_1_&#45;&gt;_2_2_1_1_2_</title>
<path fill="none" stroke="black" d="M200.97,-173.8C205.28,-161.97 211.1,-146.03 216,-132.58"/>
<polygon fill="black" stroke="black" points="219.4,-133.48 219.54,-122.89 212.82,-131.08 219.4,-133.48"/>
<text text-anchor="middle" x="221.7" y="-144.8" font-family="Times,serif" font-size="14.00">no</text>
</g>
<!-- _2_2_1_2_1_ -->
<g id="node11" class="node">
<title>_2_2_1_2_1_</title>
<ellipse fill="none" stroke="black" cx="335.7" cy="-105" rx="43.59" ry="18"/>
<text text-anchor="middle" x="335.7" y="-101.3" font-family="Times,serif" font-size="14.00">error 3</text>
</g>
<!-- _2_2_1_2_&#45;&gt;_2_2_1_2_1_ -->
<g id="edge6" class="edge">
<title>_2_2_1_2_&#45;&gt;_2_2_1_2_1_</title>
<path fill="none" stroke="black" d="M353.56,-173.8C351.12,-168.21 348.6,-161.92 346.7,-156 344.37,-148.75 342.37,-140.76 340.73,-133.33"/>
<polygon fill="black" stroke="black" points="344.12,-132.42 338.68,-123.34 337.27,-133.84 344.12,-132.42"/>
<text text-anchor="middle" x="355.7" y="-144.8" font-family="Times,serif" font-size="14.00">no</text>
</g>
<!-- _2_2_1_2_2_ -->
<g id="node12" class="node">
<title>_2_2_1_2_2_</title>
<ellipse fill="none" stroke="black" cx="465.7" cy="-105" rx="68.79" ry="18"/>
<text text-anchor="middle" x="465.7" y="-101.3" font-family="Times,serif" font-size="14.00">rest unique?</text>
</g>
<!-- _2_2_1_2_&#45;&gt;_2_2_1_2_2_ -->
<g id="edge9" class="edge">
<title>_2_2_1_2_&#45;&gt;_2_2_1_2_2_</title>
<path fill="none" stroke="black" d="M382.24,-174.21C398.01,-161.32 419.97,-143.38 437.4,-129.13"/>
<polygon fill="black" stroke="black" points="440.02,-131.51 445.55,-122.47 435.59,-126.09 440.02,-131.51"/>
<text text-anchor="middle" x="433.2" y="-144.8" font-family="Times,serif" font-size="14.00">yes</text>
</g>
<!-- _2_2_1_2_2_1_ -->
<g id="node13" class="node">
<title>_2_2_1_2_2_1_</title>
<ellipse fill="none" stroke="black" cx="408.7" cy="-18" rx="43.59" ry="18"/>
<text text-anchor="middle" x="408.7" y="-14.3" font-family="Times,serif" font-size="14.00">error 4</text>
</g>
<!-- _2_2_1_2_2_&#45;&gt;_2_2_1_2_2_1_ -->
<g id="edge7" class="edge">
<title>_2_2_1_2_2_&#45;&gt;_2_2_1_2_2_1_</title>
<path fill="none" stroke="black" d="M454.43,-87.21C446.18,-74.9 434.85,-58 425.52,-44.09"/>
<polygon fill="black" stroke="black" points="428.22,-41.83 419.74,-35.47 422.4,-45.72 428.22,-41.83"/>
<text text-anchor="middle" x="449.7" y="-57.8" font-family="Times,serif" font-size="14.00">no</text>
</g>
<!-- _2_2_1_2_2_2_ -->
<g id="node14" class="node">
<title>_2_2_1_2_2_2_</title>
<ellipse fill="none" stroke="black" cx="521.7" cy="-18" rx="51.19" ry="18"/>
<text text-anchor="middle" x="521.7" y="-14.3" font-family="Times,serif" font-size="14.00">to object</text>
</g>
<!-- _2_2_1_2_2_&#45;&gt;_2_2_1_2_2_2_ -->
<g id="edge8" class="edge">
<title>_2_2_1_2_2_&#45;&gt;_2_2_1_2_2_2_</title>
<path fill="none" stroke="black" d="M476.76,-87.21C484.81,-74.98 495.86,-58.21 504.99,-44.36"/>
<polygon fill="black" stroke="black" points="508.08,-46.03 510.65,-35.76 502.23,-42.18 508.08,-46.03"/>
<text text-anchor="middle" x="509.2" y="-57.8" font-family="Times,serif" font-size="14.00">yes</text>
</g>
</g>
</svg>
